<svg xmlns="http://www.w3.org/2000/svg" width="32.333" height="32.333" viewBox="0 0 32.333 32.333">
  <path id="ic_fitness_center_24px" d="M32.021,22.79l2.312-2.312-2.312-2.312L26.25,23.938,12.4,10.083l5.771-5.771L15.855,2,13.543,4.312,11.231,2,7.771,5.46,5.46,3.148,3.148,5.46,5.46,7.771,2,11.231l2.312,2.312L2,15.855l2.312,2.312L10.083,12.4,23.938,26.25l-5.771,5.771,2.312,2.312,2.312-2.312L25.1,34.333l3.46-3.46,2.312,2.312,2.312-2.312-2.312-2.312,3.46-3.46Z" transform="translate(-2 -2)" fill="#b5aa44"/>
</svg>
