<svg xmlns="http://www.w3.org/2000/svg" width="25.178" height="29.333" viewBox="0 0 25.178 29.333">
  <path id="ic_face_24px" d="M10.812,16.3a1.719,1.719,0,0,0-1.574,1.833,1.719,1.719,0,0,0,1.574,1.833,1.719,1.719,0,0,0,1.574-1.833A1.719,1.719,0,0,0,10.812,16.3Zm7.553,0a1.719,1.719,0,0,0-1.574,1.833,1.719,1.719,0,0,0,1.574,1.833,1.719,1.719,0,0,0,1.574-1.833A1.719,1.719,0,0,0,18.366,16.3ZM14.589,2C7.64,2,2,8.571,2,16.667S7.64,31.333,14.589,31.333s12.589-6.571,12.589-14.667S21.538,2,14.589,2Zm0,26.4c-5.552,0-10.071-5.265-10.071-11.733,0-.425.025-.851.063-1.261A13.982,13.982,0,0,0,11.14,7.529a12.141,12.141,0,0,0,10.273,6.2,10.634,10.634,0,0,0,2.833-.381,13.481,13.481,0,0,1,.415,3.315C24.66,23.135,20.141,28.4,14.589,28.4Z" transform="translate(-2 -2)" fill="#b5aa44"/>
</svg>
