<svg xmlns="http://www.w3.org/2000/svg" width="42.94" height="45" viewBox="0 0 42.94 45">
  <path id="ic_notifications_none_24px" d="M25.47,47.5c2.952,0,5.368-2.077,5.368-4.615H20.1C20.1,45.423,22.518,47.5,25.47,47.5Zm16.1-13.846V22.115C41.573,15.031,37.2,9.1,29.5,7.531V5.962A3.771,3.771,0,0,0,25.47,2.5a3.771,3.771,0,0,0-4.026,3.462V7.531C13.769,9.1,9.368,15.008,9.368,22.115V33.654L4,38.269v2.308H46.94V38.269Zm-5.368,2.308H14.735V22.115c0-5.723,4.052-10.385,10.735-10.385s10.735,4.662,10.735,10.385Z" transform="translate(-4 -2.5)" fill="#b5aa44"/>
</svg>
