<svg xmlns="http://www.w3.org/2000/svg" width="103" height="103" viewBox="0 0 103 103">
  <g id="Group_22" data-name="Group 22" transform="translate(-232 -861)">
    <g id="Ellipse_6" data-name="Ellipse 6" transform="translate(232 861)" fill="none" stroke="#b5aa44" stroke-width="3">
      <circle cx="51.5" cy="51.5" r="51.5" stroke="none"/>
      <circle cx="51.5" cy="51.5" r="50" fill="none"/>
    </g>
    <path id="ic_directions_bike_24px" d="M31.538,9.639a4.069,4.069,0,1,0-4.069-4.069A4.081,4.081,0,0,0,31.538,9.639ZM10.174,22.865a10.174,10.174,0,1,0,0,20.347,10.174,10.174,0,1,0,0-20.347Zm0,17.3a7.122,7.122,0,0,1,0-14.243,7.122,7.122,0,0,1,0,14.243Zm11.8-20.347,4.883-4.883,1.628,1.628A14.255,14.255,0,0,0,38.863,20.83V16.76a10.109,10.109,0,0,1-7.325-3.052L27.672,9.842a4.989,4.989,0,0,0-3.256-1.221,3.414,3.414,0,0,0-2.849,1.221l-5.7,5.7a4.017,4.017,0,0,0-1.221,2.849,3.414,3.414,0,0,0,1.221,2.849l6.511,5.7V37.108h4.069V24.492ZM38.66,22.865A10.174,10.174,0,1,0,48.833,33.038,10.075,10.075,0,0,0,38.66,22.865Zm0,17.3a7.122,7.122,0,1,1,7.122-7.122A7.209,7.209,0,0,1,38.66,40.16Z" transform="translate(259 890.5)" fill="#b5aa44"/>
  </g>
</svg>
