<svg xmlns="http://www.w3.org/2000/svg" width="103" height="103" viewBox="0 0 103 103">
  <g id="Group_23" data-name="Group 23" transform="translate(-232 -861)">
    <g id="Ellipse_6" data-name="Ellipse 6" transform="translate(232 861)" fill="none" stroke="#b5aa44" stroke-width="3">
      <circle cx="51.5" cy="51.5" r="51.5" stroke="none"/>
      <circle cx="51.5" cy="51.5" r="50" fill="none"/>
    </g>
    <g id="ic_pool_24px" transform="translate(257 887)">
      <path id="Path_100" data-name="Path 100" d="M52,48a9.563,9.563,0,0,1-5.45-1.6,4.693,4.693,0,0,0-2.875-.9,4.489,4.489,0,0,0-2.875.9,10.082,10.082,0,0,1-10.9,0,4.693,4.693,0,0,0-2.875-.9,4.489,4.489,0,0,0-2.875.9A9.728,9.728,0,0,1,18.675,48a9.563,9.563,0,0,1-5.45-1.6,4.539,4.539,0,0,0-2.875-.9,4.539,4.539,0,0,0-2.875.9A9.728,9.728,0,0,1,2,48V43a4.489,4.489,0,0,0,2.875-.9,9.728,9.728,0,0,1,5.475-1.6,9.563,9.563,0,0,1,5.45,1.6,4.489,4.489,0,0,0,2.875.9,4.489,4.489,0,0,0,2.875-.9,9.728,9.728,0,0,1,5.475-1.6,9.563,9.563,0,0,1,5.45,1.6,4.693,4.693,0,0,0,2.875.9,4.539,4.539,0,0,0,2.875-.9,10.082,10.082,0,0,1,10.9,0A4.49,4.49,0,0,0,52,43v5Zm0-11.25a9.563,9.563,0,0,1-5.45-1.6,4.693,4.693,0,0,0-2.875-.9,4.489,4.489,0,0,0-2.875.9,10.082,10.082,0,0,1-10.9,0,4.693,4.693,0,0,0-2.875-.9,4.489,4.489,0,0,0-2.875.9,9.563,9.563,0,0,1-5.45,1.6,9.563,9.563,0,0,1-5.45-1.6,4.693,4.693,0,0,0-2.875-.9,4.539,4.539,0,0,0-2.875.9A9.9,9.9,0,0,1,2,36.75v-5a4.489,4.489,0,0,0,2.875-.9,9.563,9.563,0,0,1,5.45-1.6,9.563,9.563,0,0,1,5.45,1.6,4.693,4.693,0,0,0,2.875.9,4.489,4.489,0,0,0,2.875-.9,9.563,9.563,0,0,1,5.45-1.6,9.563,9.563,0,0,1,5.45,1.6,4.693,4.693,0,0,0,2.875.9,4.539,4.539,0,0,0,2.875-.9,10.082,10.082,0,0,1,10.9,0,4.693,4.693,0,0,0,2.875.9v5ZM18.675,25.5a4.489,4.489,0,0,0,2.875-.9A9.728,9.728,0,0,1,27.025,23a9.563,9.563,0,0,1,5.45,1.6,4.693,4.693,0,0,0,2.875.9,4.539,4.539,0,0,0,2.875-.9c.3-.175.65-.375,1.025-.575L23.2,8C19.325,4.125,15.75,2.975,9.5,3V9.25c4.55-.025,7.225.975,10,3.75L22,15.5l-8.125,8.125A13.679,13.679,0,0,1,15.8,24.6,4.489,4.489,0,0,0,18.675,25.5Z" transform="translate(0 0)" fill="#b5aa44"/>
      <circle id="Ellipse_22" data-name="Ellipse 22" cx="6.5" cy="6.5" r="6.5" transform="translate(32 3)" fill="#b5aa44"/>
    </g>
  </g>
</svg>
