<svg xmlns="http://www.w3.org/2000/svg" width="34.667" height="57.333" viewBox="0 0 34.667 57.333">
  <path id="ic_directions_walk_24px" d="M26,12.167a5.333,5.333,0,1,0-5.333-5.333A5.349,5.349,0,0,0,26,12.167Zm-9.867,9.067-7.467,37.6h5.6l4.8-21.333,5.6,5.333v16H30v-20L24.4,33.5l1.6-8a19.527,19.527,0,0,0,14.667,6.667V26.833a13.118,13.118,0,0,1-11.467-6.4l-2.667-4.267A5.5,5.5,0,0,0,22,13.5c-.8,0-1.333.267-2.133.267L6,19.633V32.167h5.333V23.1l4.8-1.867" transform="translate(-6 -1.5)" fill="#b5aa44"/>
</svg>
