<svg xmlns="http://www.w3.org/2000/svg" width="44.667" height="24.194" viewBox="0 0 44.667 24.194">
  <path id="ic_group_add_24px" d="M14.889,14.306H9.306V8.722H5.583v5.583H0v3.722H5.583v5.583H9.306V18.028h5.583ZM33.5,16.167A5.583,5.583,0,1,0,31.806,5.261a9.183,9.183,0,0,1,1.675,5.323,9.364,9.364,0,0,1-1.675,5.323A5.564,5.564,0,0,0,33.5,16.167Zm-9.306,0a5.583,5.583,0,1,0-5.583-5.583A5.56,5.56,0,0,0,24.194,16.167Zm12.321,4.02a6.886,6.886,0,0,1,2.568,5.286v3.722h5.583V25.472C44.667,22.606,40.256,20.838,36.515,20.187Zm-12.321-.3c-3.722,0-11.167,1.861-11.167,5.583v3.722H35.361V25.472C35.361,21.75,27.917,19.889,24.194,19.889Z" transform="translate(0 -5)" fill="#b5aa44"/>
</svg>
